<svg width="548" height="367" viewBox="0 0 548 367" fill="none" xmlns="http://www.w3.org/2000/svg">
<path opacity="0.6" d="M318.251 60.5496C283.183 59.3301 249.758 48.0018 217.888 35.6102C186.019 23.2187 154.431 9.48665 120.185 2.92047C98.1664 -1.30748 72.9852 -1.90212 55.2475 9.90994C38.1746 21.2735 32.6599 40.8914 29.6935 59.0933C27.4625 72.79 26.1682 87.2023 32.2671 100.027C36.5126 108.927 44.0469 116.41 49.2594 124.936C67.3899 154.603 54.5726 191.188 34.9212 220.179C25.7048 233.785 15.0129 246.731 7.90167 261.198C0.790478 275.666 -2.50323 292.24 3.72158 306.995C9.89099 321.609 24.5868 332.605 40.5114 340.33C72.8542 356.007 110.964 360.492 148.126 363.062C230.388 368.691 313.094 366.252 395.572 363.813C426.097 362.906 456.758 361.994 486.784 357.262C503.459 354.637 520.678 350.474 532.785 340.426C548.151 327.666 551.963 306.068 541.664 290.068C524.39 263.239 476.631 256.572 464.554 227.778C457.911 211.929 464.735 194.272 474.395 179.572C495.109 148.042 529.839 120.376 531.667 84.33C532.926 59.572 516.231 34.7838 490.415 23.0675C463.36 10.7767 425.84 12.3288 405.882 32.6421C385.329 53.5702 349.209 61.623 318.251 60.5496Z" fill="#587EEC"/>
</svg>
